<!DOCTYPE svg PUBLIC "-//W3C//DTD SVG 1.1//EN" "http://www.w3.org/Graphics/SVG/1.1/DTD/svg11.dtd">
<!-- Uploaded to: SVG Repo, www.svgrepo.com, Transformed by: SVG Repo Mixer Tools -->
<svg fill="#ffd100" height="64px" width="64px" version="1.1" id="Layer_1" xmlns="http://www.w3.org/2000/svg" xmlns:xlink="http://www.w3.org/1999/xlink" viewBox="0 0 503.608 503.608" xml:space="preserve" stroke="#ffd100">
<g id="SVGRepo_bgCarrier" stroke-width="0"/>
<g id="SVGRepo_tracerCarrier" stroke-linecap="round" stroke-linejoin="round"/>
<g id="SVGRepo_iconCarrier"> <g> <g> <g> <path d="M184.657,50.362h-83.934v402.885h302.164V117.51h-58.754c-4.642,0-8.393-3.752-8.393-8.393V50.362h-16.787v8.444 c0,13.858-11.272,25.13-25.122,25.13h-8.628c-7.848,10.357-20.279,16.787-32.969,16.787h-0.554 c-13.354-0.201-25.474-6.396-33.28-16.787h-8.62c-13.849,0-25.122-11.272-25.122-25.13V50.362z M289.617,368.163 c-18.852,9.476-20.178,32.651-21.026,51.511c-0.336,7.453-8.821,10.811-14.328,5.934c-8.905-7.881-16.275-17.299-25.18-25.18 c-8.108-7.176,3.802-19.011,11.868-11.868c4.381,3.878,8.385,8.125,12.389,12.38c2.594-19.305,9.157-37.905,27.799-47.263 C290.783,348.833,299.269,363.32,289.617,368.163z M351.594,386.142c9.997-2.233,20.295,3.811,24.962,12.506 c5.12,9.527-9.384,17.996-14.487,8.477c-4.986-9.292-14.521,0.151-20.656,2.552c-4.885,1.905-9.451,2.451-14.579,1.183 c-10.29-2.535-19.078-11.172-23.518-20.522c-4.616-9.72,9.862-18.231,14.487-8.477c2.61,5.498,8.595,13.782,15.704,12.934 C339.801,394.04,345.232,387.569,351.594,386.142z M201.443,218.231h100.721c4.642,0,8.393,3.752,8.393,8.393 c0,4.642-3.752,8.393-8.393,8.393H201.443c-4.642,0-8.393-3.752-8.393-8.393C193.05,221.983,196.802,218.231,201.443,218.231z M335.739,276.985c4.642,0,8.393,3.752,8.393,8.393c0,4.642-3.752,8.393-8.393,8.393H167.87c-4.642,0-8.393-3.752-8.393-8.393 c0-4.642,3.752-8.393,8.393-8.393H335.739z"/> <polygon points="352.525,100.724 391.018,100.724 352.525,62.232 "/> <path d="M209.778,67.148h13.111c2.98,0,5.741,1.595,7.252,4.172c4.516,7.764,12.666,12.481,21.798,12.615 c8.822,0.017,17.072-4.952,21.529-12.615c1.511-2.577,4.272-4.172,7.252-4.172h13.111c4.6,0,8.335-3.743,8.335-8.343V41.968 V8.394V0.001h-16.787v8.393v25.239c0,13.849-11.272,25.122-25.122,25.122h-16.904c-13.849,0-25.122-11.272-25.122-25.122V0.001 h-16.787v41.967v16.837C201.443,63.405,205.179,67.148,209.778,67.148z"/> <path d="M243.352,41.967h16.904c4.6,0,8.335-3.735,8.335-8.335V8.393V0h-33.574v33.633 C235.017,38.232,238.752,41.967,243.352,41.967z"/> <path d="M428.066,0.002H318.952v8.393v25.18h25.18c0.185,0,0.352,0.092,0.537,0.109c0.739,0.042,1.444,0.185,2.149,0.428 c0.269,0.092,0.529,0.159,0.797,0.277c0.89,0.411,1.729,0.923,2.451,1.645l67.148,67.148c0.722,0.722,1.234,1.57,1.645,2.459 c0.117,0.26,0.185,0.512,0.277,0.781c0.243,0.713,0.386,1.427,0.436,2.174c0.008,0.185,0.101,0.344,0.101,0.52v352.525 c0,4.642-3.752,8.393-8.393,8.393H92.329c-4.642,0-8.393-3.752-8.393-8.393V41.969c0-4.642,3.752-8.393,8.393-8.393h92.328V0.002 H75.542c-13.883,0-25.18,11.298-25.18,25.18v453.246c0,13.883,11.298,25.18,25.18,25.18h352.525 c13.883,0,25.18-11.298,25.18-25.18V25.182C453.247,11.299,441.949,0.002,428.066,0.002z"/> </g> </g> </g> </g>
</svg>