<!DOCTYPE svg PUBLIC "-//W3C//DTD SVG 1.1//EN" "http://www.w3.org/Graphics/SVG/1.1/DTD/svg11.dtd">
<!-- Uploaded to: SVG Repo, www.svgrepo.com, Transformed by: SVG Repo Mixer Tools -->
<svg fill="#ffd100" height="149px" width="149px" version="1.1" id="Layer_1" xmlns="http://www.w3.org/2000/svg" xmlns:xlink="http://www.w3.org/1999/xlink" viewBox="0 0 100 100" xml:space="preserve" stroke="#ffd100">
<g id="SVGRepo_bgCarrier" stroke-width="0"/>
<g id="SVGRepo_tracerCarrier" stroke-linecap="round" stroke-linejoin="round"/>
<g id="SVGRepo_iconCarrier"> <path d="M97.3,49.8V17h-8.8v-4c0-3.3-2.7-6-6-6H18.8c-3.3,0-6,2.7-6,6v14.2c0,3.3,2.7,6,6,6h63.8c3.3,0,6-2.7,6-6V21h4.8v24.8H48.7 v10.7c-3,0.3-5.4,2.9-5.4,6v28.8c0,3.3,2.7,6,6,6h2.8c3.3,0,6-2.7,6-6V62.5c0-3.1-2.4-5.7-5.4-6v-6.7H97.3z"/> </g>
</svg>