<!DOCTYPE svg PUBLIC "-//W3C//DTD SVG 1.1//EN" "http://www.w3.org/Graphics/SVG/1.1/DTD/svg11.dtd">
<!-- Uploaded to: SVG Repo, www.svgrepo.com, Transformed by: SVG Repo Mixer Tools -->
<svg fill="#ffd100" height="800px" width="800px" version="1.1" id="Capa_1" xmlns="http://www.w3.org/2000/svg" xmlns:xlink="http://www.w3.org/1999/xlink" viewBox="0 0 58 58" xml:space="preserve" stroke="#ffd100">
<g id="SVGRepo_bgCarrier" stroke-width="0"/>
<g id="SVGRepo_tracerCarrier" stroke-linecap="round" stroke-linejoin="round"/>
<g id="SVGRepo_iconCarrier"> <g> <path d="M56.239,48.132c-3.514-5.367-8.206-8.395-13.26-8.591c-0.267-0.032-0.538-0.052-0.813-0.052 c-0.489,0-0.965,0.053-1.425,0.149c-4.597,0.592-8.832,3.552-12.068,8.494l-0.466,0.711l0.359,0.548 C32.201,54.942,37.095,58,42.349,58c5.253,0,10.148-3.058,13.783-8.609l0.466-0.711L56.239,48.132z M47.075,46.397 c0,2.707-2.202,4.909-4.909,4.909s-4.909-2.202-4.909-4.909c0-2.345,1.655-4.305,3.856-4.789c0.445-0.053,0.892-0.087,1.343-0.087 c0.02,0,0.04,0.002,0.06,0.002C45.057,41.707,47.075,43.81,47.075,46.397z M42.349,56c-4.387,0-8.538-2.537-11.744-7.161 c1.559-2.287,3.348-4.069,5.281-5.305c-0.4,0.874-0.629,1.842-0.629,2.864c0,3.81,3.1,6.909,6.909,6.909s6.909-3.1,6.909-6.909 c0-1.216-0.318-2.358-0.872-3.352c2.204,1.207,4.242,3.107,5.996,5.638C50.979,53.406,46.785,56,42.349,56z"/> <path d="M18.402,8h9c0.552,0,1-0.447,1-1V1c0-0.553-0.448-1-1-1h-9c-0.552,0-1,0.447-1,1v6C17.402,7.553,17.85,8,18.402,8z"/> <path d="M11.402,11h23c0.552,0,1-0.447,1-1V4c0-0.553-0.448-1-1-1h-4c-0.552,0-1,0.447-1,1v5h-13V4c0-0.553-0.448-1-1-1h-4 c-0.552,0-1,0.447-1,1v6C10.402,10.553,10.85,11,11.402,11z"/> <path d="M26.056,51.034l-1.436-2.192l1.543-2.354c4.207-6.427,9.993-9.966,16.292-9.966c0.655,0,1.303,0.047,1.946,0.123V7 c0-0.553-0.448-1-1-1h-6c-0.552,0-1,0.447-1,1v5h-27V7c0-0.553-0.448-1-1-1h-6c-0.552,0-1,0.447-1,1v50c0,0.553,0.448,1,1,1h30.365 C30.266,56.329,27.992,53.992,26.056,51.034z M8.402,16h13c0.552,0,1,0.447,1,1s-0.448,1-1,1h-13c-0.552,0-1-0.447-1-1 S7.85,16,8.402,16z M8.402,22h29c0.552,0,1,0.447,1,1s-0.448,1-1,1h-29c-0.552,0-1-0.447-1-1S7.85,22,8.402,22z M8.402,28h14 c0.552,0,1,0.447,1,1s-0.448,1-1,1h-14c-0.552,0-1-0.447-1-1S7.85,28,8.402,28z M8.402,34h24c0.552,0,1,0.447,1,1s-0.448,1-1,1h-24 c-0.552,0-1-0.447-1-1S7.85,34,8.402,34z M8.402,40h19c0.552,0,1,0.447,1,1s-0.448,1-1,1h-19c-0.552,0-1-0.447-1-1 S7.85,40,8.402,40z M21.402,48h-13c-0.552,0-1-0.447-1-1s0.448-1,1-1h13c0.552,0,1,0.447,1,1S21.955,48,21.402,48z"/> </g> </g>
</svg>